<?xml version="1.0" standalone="no"?>
<!DOCTYPE svg PUBLIC "-//W3C//DTD SVG 20010904//EN"
 "http://www.w3.org/TR/2001/REC-SVG-20010904/DTD/svg10.dtd">
<svg version="1.0" xmlns="http://www.w3.org/2000/svg"
 width="480.000000pt" height="240.000000pt" viewBox="0 0 480.000000 240.000000"
 preserveAspectRatio="xMidYMid meet">

<g transform="translate(0.000000,240.000000) scale(0.100000,-0.100000)"
fill="#000000" stroke="none">
<path d="M1310 2280 l0 -70 55 0 55 0 0 -460 0 -460 50 0 50 0 0 460 0 460 50
0 50 0 0 70 0 70 -155 0 -155 0 0 -70z"/>
<path d="M1650 2338 c0 -7 20 -238 45 -513 25 -274 45 -507 45 -517 0 -15 8
-18 48 -18 l49 0 22 233 c31 328 33 341 42 325 4 -8 18 -136 30 -286 l23 -272
47 0 47 0 6 48 c4 26 26 245 51 487 24 242 47 459 50 483 l6 42 -50 0 c-28 0
-51 -3 -51 -7 0 -5 -11 -152 -25 -327 -22 -287 -33 -376 -36 -305 -1 13 -3 38
-5 54 -4 43 -44 550 -44 569 0 12 -10 16 -40 16 -48 0 -41 30 -74 -344 -23
-254 -29 -298 -40 -285 -2 2 -12 145 -22 317 l-18 312 -53 0 c-36 0 -53 -4
-53 -12z"/>
<path d="M2210 2343 c0 -3 18 -30 40 -60 52 -68 127 -118 212 -140 77 -20 144
-11 225 29 43 21 141 116 163 158 10 19 7 20 -58 20 -63 0 -71 -2 -97 -30 -65
-68 -198 -80 -290 -25 -26 14 -49 33 -52 41 -4 10 -24 14 -74 14 -38 0 -69 -3
-69 -7z"/>
<path d="M2436 2043 c-233 -71 -372 -421 -285 -714 l12 -39 57 0 57 0 -21 58
c-28 79 -29 262 -2 342 36 106 108 195 185 227 42 18 134 19 176 3 192 -73
276 -361 179 -615 -6 -14 2 -16 52 -13 l58 3 14 50 c22 76 21 294 -2 370 -75
250 -280 390 -480 328z"/>
<path d="M1445 1136 c-41 -18 -82 -68 -95 -114 -6 -22 -10 -187 -10 -418 0
-317 3 -389 15 -425 20 -55 49 -87 103 -111 l44 -20 46 24 c77 39 95 83 100
245 l5 133 -47 0 -46 0 0 -97 c0 -114 -12 -146 -55 -151 -55 -7 -55 -3 -55
405 0 360 1 374 20 393 25 25 32 25 61 1 22 -18 24 -28 27 -130 l4 -111 45 0
46 0 -5 133 c-5 144 -22 200 -73 233 -34 22 -94 27 -130 10z"/>
<path d="M2311 1134 c-45 -23 -79 -78 -92 -147 -6 -36 -9 -193 -7 -420 3 -358
3 -363 27 -410 26 -53 85 -98 130 -99 31 -1 79 22 103 49 38 41 48 88 48 218
l0 125 -45 0 -45 0 0 -109 c0 -119 -9 -141 -55 -141 -53 0 -55 13 -55 408 l0
363 24 24 c16 16 31 23 43 19 37 -13 43 -35 43 -146 l0 -108 45 0 45 0 0 128
c0 139 -13 184 -63 231 -34 31 -100 38 -146 15z"/>
<path d="M3275 1136 c-67 -30 -94 -92 -95 -217 0 -110 20 -175 110 -360 93
-191 114 -296 69 -353 -25 -32 -42 -33 -69 -4 -17 18 -20 35 -20 105 l0 83
-51 0 -51 0 4 -102 c5 -121 23 -168 77 -202 56 -35 81 -38 128 -15 50 24 73
55 97 123 38 114 6 247 -118 493 -63 126 -76 167 -76 245 0 63 16 88 55 88 35
0 45 -28 45 -119 l0 -81 51 0 51 0 -4 103 c-5 112 -23 165 -69 199 -34 25 -96
32 -134 14z"/>
<path d="M1700 605 l0 -525 50 0 50 0 0 525 0 525 -50 0 -50 0 0 -525z"/>
<path d="M1860 605 l0 -525 55 0 55 0 0 225 0 225 28 0 c55 0 60 -17 64 -220
4 -220 10 -240 80 -240 l41 0 -8 53 c-4 28 -10 132 -14 229 -5 162 -8 179 -28
207 l-23 30 25 37 c24 36 25 42 25 213 0 163 -2 180 -22 221 -31 61 -54 70
-175 70 l-103 0 0 -525z m184 383 c13 -18 16 -51 16 -155 0 -161 -6 -183 -55
-183 l-35 0 0 180 0 180 29 0 c20 0 35 -8 45 -22z"/>
<path d="M2570 605 l0 -525 130 0 130 0 0 65 0 65 -75 0 -75 0 0 460 0 460
-55 0 -55 0 0 -525z"/>
<path d="M2870 605 l0 -525 130 0 130 0 0 65 0 64 -77 3 -78 3 0 170 0 170 58
3 58 3 -3 62 -3 62 -57 3 -58 3 0 154 0 155 80 0 80 0 0 65 0 65 -130 0 -130
0 0 -525z"/>
<path d="M1310 60 c0 -5 5 -10 11 -10 5 0 7 5 4 10 -3 6 -8 10 -11 10 -2 0 -4
-4 -4 -10z"/>
</g>
</svg>
