<?xml version="1.0" standalone="no"?>
<!DOCTYPE svg PUBLIC "-//W3C//DTD SVG 20010904//EN"
 "http://www.w3.org/TR/2001/REC-SVG-20010904/DTD/svg10.dtd">
<svg version="1.0" xmlns="http://www.w3.org/2000/svg"
 width="312.000000pt" height="414.000000pt" viewBox="0 0 312.000000 414.000000"
 preserveAspectRatio="xMidYMid meet">

<g transform="translate(0.000000,414.000000) scale(0.100000,-0.100000)"
fill="#000000" stroke="none">
<path d="M123 2833 c3 -1193 4 -1209 25 -1323 95 -499 332 -866 732 -1135 131
-88 359 -196 534 -254 l156 -51 156 51 c175 58 403 166 534 254 400 269 637
636 732 1135 21 114 22 130 25 1323 l4 1207 -1451 0 -1451 0 4 -1207z m2787 7
c0 -697 -4 -1126 -11 -1188 -24 -222 -83 -424 -180 -612 -195 -379 -545 -656
-1032 -816 l-117 -38 -117 38 c-395 130 -703 340 -913 621 -71 94 -166 277
-208 396 -39 109 -78 287 -91 411 -7 62 -11 491 -11 1188 l0 1090 1340 0 1340
0 0 -1090z"/>
<path d="M2317 3770 c-199 -63 -311 -253 -279 -468 39 -267 277 -410 567 -341
37 9 145 49 145 53 0 8 -22 124 -26 138 -4 15 -13 13 -72 -15 -61 -29 -76 -32
-163 -32 -89 0 -99 2 -144 30 -67 42 -106 113 -113 205 -9 137 37 232 135 277
76 35 183 30 269 -13 32 -16 62 -30 65 -32 4 -2 12 34 19 79 15 94 18 89 -79
119 -85 27 -241 27 -324 0z"/>
<path d="M392 3483 c3 -288 4 -300 27 -350 27 -61 94 -126 155 -154 55 -24
177 -41 236 -34 25 4 76 15 113 26 90 26 164 95 196 182 20 54 21 77 21 342
l0 285 -94 0 -95 0 -3 -282 c-3 -262 -4 -286 -23 -317 -36 -62 -66 -76 -158
-76 -95 0 -131 18 -163 82 -17 34 -19 68 -22 316 l-3 277 -95 0 -96 0 4 -297z"/>
<path d="M1310 3370 l0 -410 173 0 c200 0 267 11 340 54 71 43 102 98 102 186
0 81 -22 122 -88 167 l-47 32 30 21 c100 71 91 238 -16 308 -61 40 -135 52
-321 52 l-173 0 0 -410z m376 237 c43 -50 24 -115 -42 -143 -18 -8 -61 -14
-94 -14 l-60 0 0 96 0 96 86 -3 c79 -4 87 -6 110 -32z m-9 -306 c48 -22 63
-45 63 -95 0 -55 -41 -94 -113 -107 -32 -5 -74 -9 -95 -7 l-37 3 -3 113 -3
112 73 0 c50 0 86 -6 115 -19z"/>
<path d="M583 2816 c-55 -19 -122 -38 -147 -41 l-46 -7 0 -89 0 -89 40 0 c22
0 88 16 147 36 96 33 120 37 208 37 90 0 111 -4 205 -37 147 -52 223 -52 375
0 96 32 122 37 205 37 83 0 109 -5 205 -37 152 -52 228 -52 375 0 94 33 115
37 205 37 88 0 112 -4 208 -37 59 -20 125 -36 147 -36 l40 0 0 89 0 89 -46 7
c-25 3 -94 22 -152 42 -103 34 -111 35 -217 30 -92 -4 -125 -10 -200 -38 -127
-46 -222 -46 -350 2 -84 32 -98 34 -215 34 -117 0 -131 -2 -215 -34 -128 -48
-224 -48 -350 -2 -78 29 -106 34 -205 38 -110 3 -119 2 -217 -31z"/>
<path d="M715 2520 c-33 -4 -101 -21 -152 -38 -50 -18 -110 -32 -132 -32 l-41
0 0 -95 0 -95 36 0 c19 0 83 17 142 37 98 33 116 37 217 37 101 0 118 -3 214
-37 139 -49 214 -50 344 -6 51 18 94 33 95 35 4 3 31 188 28 191 -1 1 -48 -14
-106 -33 -144 -47 -221 -47 -362 0 -110 36 -187 46 -283 36z"/>
<path d="M1522 2212 c-24 -174 -58 -417 -75 -540 -17 -122 -34 -219 -39 -214
-4 4 -118 192 -253 417 -135 226 -243 399 -240 385 3 -14 50 -220 105 -459 55
-239 99 -435 98 -436 -2 -2 -122 111 -268 251 -145 139 -265 252 -267 251 -1
-2 59 -151 133 -331 74 -180 134 -330 132 -332 -3 -2 -101 68 -219 155 -117
88 -215 158 -217 156 -6 -6 80 -218 133 -330 113 -236 279 -434 475 -564 108
-72 309 -172 453 -225 l97 -36 98 36 c464 171 747 412 927 789 53 112 139 324
133 330 -2 2 -100 -68 -217 -156 -118 -87 -216 -157 -219 -155 -2 2 58 152
132 332 74 180 134 329 133 331 -2 1 -122 -112 -267 -251 -146 -140 -266 -253
-268 -251 -1 1 43 197 98 436 55 239 102 445 105 459 3 14 -105 -159 -240
-385 -135 -225 -249 -413 -253 -417 -5 -5 -22 92 -39 214 -17 123 -51 366 -75
540 -23 175 -45 318 -48 318 -3 0 -25 -143 -48 -318z"/>
<path d="M2285 2520 c-33 -4 -101 -21 -152 -38 -128 -45 -210 -44 -353 2 -58
19 -105 34 -106 33 -3 -3 24 -188 28 -191 1 -2 44 -17 95 -35 130 -44 205 -43
344 6 96 34 113 37 214 37 101 0 119 -4 217 -37 59 -20 123 -37 142 -37 l36 0
0 95 0 95 -40 0 c-22 0 -86 15 -142 34 -110 36 -187 46 -283 36z"/>
<path d="M683 2189 c-23 -4 -82 -22 -131 -38 -49 -17 -106 -31 -126 -31 l-36
0 0 -95 0 -95 31 0 c17 0 78 16 137 36 86 29 127 37 210 41 56 3 102 9 102 14
0 9 -28 134 -36 162 -4 13 -16 17 -57 16 -29 -1 -71 -5 -94 -10z"/>
<path d="M2307 2184 c-9 -28 -37 -154 -37 -163 0 -5 46 -11 103 -14 82 -4 123
-12 209 -41 59 -20 120 -36 137 -36 l31 0 0 95 0 95 -36 0 c-19 0 -83 16 -141
35 -66 23 -135 38 -183 42 -70 5 -78 4 -83 -13z"/>
<path d="M1350 2153 c-38 -14 -99 -27 -147 -31 l-81 -7 54 -91 55 -92 42 10
c23 5 60 17 82 27 l41 18 12 93 c7 51 11 94 10 95 -2 2 -32 -8 -68 -22z"/>
<path d="M1723 2143 c4 -21 9 -64 13 -97 7 -57 8 -59 48 -77 23 -10 60 -22 83
-27 l42 -10 55 92 54 91 -76 6 c-46 3 -107 16 -151 32 l-74 28 6 -38z"/>
</g>
</svg>
