<?xml version="1.0" standalone="no"?>
<!DOCTYPE svg PUBLIC "-//W3C//DTD SVG 20010904//EN"
 "http://www.w3.org/TR/2001/REC-SVG-20010904/DTD/svg10.dtd">
<svg version="1.0" xmlns="http://www.w3.org/2000/svg"
 width="1200.000000pt" height="1557.000000pt" viewBox="0 0 1200.000000 1557.000000"
 preserveAspectRatio="xMidYMid meet">

<g transform="translate(0.000000,1557.000000) scale(0.100000,-0.100000)"
fill="#000000" stroke="none">
<path d="M5345 14005 c-357 -597 -652 -1088 -656 -1090 -3 -3 -149 234 -324
526 -175 295 -321 527 -325 523 -20 -20 -3703 -6190 -3704 -6204 0 -13 3633
-6103 3652 -6122 4 -3 153 239 331 538 179 299 328 544 332 544 4 0 308 -504
675 -1120 368 -616 671 -1119 674 -1119 3 0 148 239 322 532 174 293 477 799
672 1125 l354 594 330 -552 330 -552 80 134 c1389 2319 3576 5987 3576 5998
-1 13 -3684 6183 -3704 6204 -4 4 -151 -231 -326 -522 -174 -292 -320 -529
-324 -527 -4 2 -299 493 -656 1090 -356 597 -651 1085 -654 1085 -4 0 -298
-488 -655 -1085z m1306 -762 c354 -593 962 -1610 1350 -2260 l707 -1183 -402
0 -402 0 -949 1590 c-523 874 -952 1589 -955 1589 -3 0 -432 -715 -955 -1589
l-949 -1590 -398 0 c-219 0 -398 3 -398 7 0 11 2694 4513 2700 4513 4 0 297
-485 651 -1077z m-2327 -502 c152 -253 276 -462 276 -466 0 -12 -392 -665
-399 -665 -3 0 -39 57 -80 126 -41 69 -77 121 -81 117 -4 -4 -411 -685 -905
-1513 -494 -828 -903 -1511 -910 -1518 -8 -9 -98 -12 -408 -10 l-397 3 956
1600 c526 880 1116 1867 1310 2193 195 325 356 592 359 592 2 0 128 -207 279
-459z m4951 -1741 l1305 -2185 -397 -3 c-310 -2 -400 1 -409 10 -6 7 -415 690
-909 1518 -494 828 -901 1509 -905 1513 -4 4 -40 -48 -81 -117 -41 -69 -77
-126 -80 -126 -7 0 -399 654 -399 665 0 19 553 926 560 918 5 -4 596 -991
1315 -2193z m-3690 -1537 c22 -12 50 -32 63 -46 l23 -24 -43 -35 c-63 -51 -65
-51 -101 -30 -65 40 -145 36 -210 -10 -70 -50 -96 -196 -51 -282 56 -108 184
-139 268 -66 l33 29 56 -41 c32 -23 57 -47 57 -54 0 -18 -58 -64 -110 -88 -63
-29 -193 -27 -271 3 -76 29 -141 89 -176 159 -26 52 -28 67 -28 167 0 100 2
115 27 160 45 86 111 141 203 172 61 20 210 12 260 -14z m675 -5 c68 -31 122
-83 158 -151 25 -48 27 -61 27 -162 0 -100 -2 -115 -28 -167 -59 -119 -169
-181 -322 -181 -110 0 -181 24 -249 85 -165 144 -142 447 40 554 74 43 121 54
224 51 77 -2 105 -8 150 -29z m-3005 -185 c43 -115 81 -212 85 -216 4 -4 44
89 90 208 l83 215 79 0 c44 0 78 -4 76 -8 -1 -5 -64 -155 -138 -335 l-135
-327 -60 0 -60 0 -130 326 c-71 179 -131 330 -133 335 -2 5 34 9 81 9 l84 0
78 -207z m788 55 c36 -84 102 -235 146 -336 l80 -183 -86 3 -86 3 -26 68 -26
67 -130 0 -130 0 -26 -67 -26 -68 -83 -3 c-64 -2 -81 0 -77 10 16 42 269 622
277 638 9 16 21 20 69 20 l58 0 66 -152z m642 -77 l140 -229 3 229 2 229 75 0
75 0 0 -335 0 -335 -97 0 -98 0 -145 238 -145 237 -3 -237 -2 -238 -70 0 -70
0 0 335 0 335 98 0 98 0 139 -229z m2045 -6 c5 -250 8 -262 63 -295 41 -26 93
-25 135 0 56 35 62 63 62 310 l0 220 76 0 75 0 -3 -252 c-3 -285 -6 -298 -86
-370 -52 -47 -100 -62 -197 -62 -95 0 -152 22 -208 79 -61 62 -67 97 -67 367
l0 239 73 -3 72 -3 5 -230z m688 158 c16 -43 53 -142 82 -221 51 -136 54 -141
65 -115 6 15 45 115 85 221 l74 192 79 0 c59 0 78 -3 74 -12 -2 -7 -65 -158
-138 -335 l-133 -323 -60 0 -61 0 -130 326 c-71 179 -131 330 -133 335 -2 5
35 9 81 9 l85 0 30 -77z m1002 7 l0 -70 -150 0 -150 0 0 -60 0 -59 143 -3 142
-3 3 -67 3 -68 -146 0 -145 0 0 -65 0 -65 160 0 160 0 0 -70 0 -70 -235 0
-235 0 0 335 0 335 225 0 225 0 0 -70z m479 60 c75 -14 119 -38 147 -79 53
-80 40 -195 -27 -256 -22 -19 -46 -35 -53 -35 -32 0 -23 -23 54 -149 44 -72
80 -133 80 -136 0 -3 -39 -5 -87 -5 l-88 0 -69 135 c-68 132 -70 135 -103 135
l-33 0 0 -135 0 -135 -75 0 -75 0 0 335 0 335 139 0 c76 0 162 -4 190 -10z
m-1470 -1130 c71 -25 186 -106 186 -131 0 -9 -42 -51 -94 -93 l-94 -77 -26 25
c-43 41 -113 67 -184 67 -80 1 -130 -12 -188 -50 -55 -34 -88 -76 -126 -156
-25 -54 -28 -71 -28 -165 0 -97 2 -110 31 -170 42 -88 83 -133 156 -170 116
-58 263 -35 347 53 l33 35 102 -75 c55 -41 103 -80 105 -85 6 -17 -103 -112
-162 -140 -168 -83 -387 -77 -575 14 -96 46 -198 150 -244 248 -49 103 -63
167 -63 290 0 123 14 187 63 290 69 147 224 267 394 305 95 22 285 14 367 -15z
m3193 19 c57 -12 158 -57 197 -88 l25 -19 -88 -96 -88 -95 -31 23 c-91 67
-243 64 -302 -5 -45 -54 -25 -128 44 -164 15 -7 79 -30 142 -51 141 -45 194
-71 241 -121 58 -60 78 -114 78 -213 -1 -227 -150 -365 -407 -378 -160 -7
-274 23 -384 104 l-50 36 42 47 c24 25 64 69 91 98 l48 52 51 -38 c60 -46 106
-61 183 -61 121 0 196 73 162 155 -19 46 -57 68 -188 114 -155 53 -218 84
-265 129 -52 51 -75 103 -81 182 -13 183 102 332 296 385 59 17 214 19 284 4z
m-9305 -46 c3 -16 45 -183 93 -373 l86 -345 103 315 c56 173 110 340 120 370
l18 55 123 0 124 0 118 -374 c65 -206 119 -376 121 -377 2 -2 43 153 92 344
48 191 92 362 97 380 l9 32 130 0 c129 0 129 0 124 -22 -4 -13 -79 -273 -169
-578 l-162 -555 -116 -3 -117 -3 -65 203 c-35 112 -93 292 -127 401 -35 108
-66 192 -70 185 -4 -7 -62 -187 -130 -400 l-123 -388 -112 0 c-99 0 -113 2
-118 18 -4 12 -298 1009 -332 1125 -5 16 6 17 135 17 l141 0 7 -27z m1743
-188 l0 -215 250 0 250 0 0 215 0 215 130 0 130 0 0 -580 0 -580 -130 0 -130
0 0 250 0 250 -250 0 -250 0 0 -250 0 -250 -125 0 -125 0 0 580 0 580 125 0
125 0 0 -215z m1300 -365 l0 -580 -130 0 -130 0 0 580 0 580 130 0 130 0 0
-580z m1110 470 l0 -110 -165 0 -165 0 0 -470 0 -470 -130 0 -130 0 0 470 0
470 -165 0 -165 0 0 110 0 110 460 0 460 0 0 -110z m990 -5 l0 -115 -265 0
-265 0 0 -110 0 -110 198 -2 197 -3 0 -115 0 -115 -197 -3 -198 -2 0 -120 0
-120 280 0 280 0 0 -115 0 -115 -410 0 -410 0 0 580 0 580 395 0 395 0 0 -115z
m2185 -452 c136 -313 249 -574 252 -581 4 -10 -26 -12 -142 -10 l-147 3 -47
118 -46 117 -230 -2 -230 -3 -45 -117 -45 -118 -142 0 -143 0 9 23 c5 12 110
256 234 542 124 287 232 537 240 558 l16 37 109 0 109 0 248 -567z m984 551
c130 -29 223 -109 252 -216 16 -59 13 -189 -5 -252 -21 -73 -87 -145 -163
-179 -76 -34 -161 -47 -310 -47 l-123 0 0 -225 0 -225 -130 0 -130 0 0 580 0
580 271 0 c208 0 286 -4 338 -16z m-2991 -1599 c35 -8 87 -26 116 -40 55 -26
149 -101 144 -115 -2 -4 -45 -42 -96 -83 l-92 -76 -51 34 c-60 41 -105 55
-181 55 -123 0 -232 -70 -290 -187 -28 -57 -33 -79 -36 -158 -5 -112 13 -187
64 -262 108 -158 333 -186 466 -56 24 23 41 33 50 27 7 -4 54 -39 105 -77 l92
-69 -21 -29 c-49 -66 -164 -135 -268 -160 -73 -18 -229 -15 -310 6 -227 58
-386 219 -436 441 -20 90 -15 269 10 346 57 178 180 309 352 374 118 44 268
56 382 29z m-798 -135 l0 -120 -265 0 -265 0 0 -115 0 -115 190 0 190 0 0
-120 0 -120 -190 0 -190 0 0 -230 0 -230 -125 0 -125 0 0 585 0 585 390 0 390
0 0 -120z m-2726 -1346 c479 -800 873 -1457 876 -1459 4 -2 39 52 79 120 40
69 76 127 80 129 4 3 99 -148 211 -335 162 -271 202 -344 194 -357 -6 -9 -133
-223 -283 -474 -150 -252 -276 -458 -280 -458 -6 0 -2561 4273 -2561 4284 0 3
183 6 408 6 l407 0 869 -1456z m1666 -579 c668 -1119 1217 -2035 1220 -2035 3
0 552 916 1220 2035 l1215 2034 412 1 412 0 -328 -547 c-2408 -4032 -2924
-4893 -2931 -4893 -6 0 -1261 2095 -3006 5018 l-253 422 412 0 412 -1 1215
-2034z m5790 2029 c0 -11 -2555 -4283 -2561 -4284 -4 0 -130 206 -280 458
-150 251 -277 465 -283 474 -8 13 32 86 194 357 112 187 207 338 211 336 3 -3
39 -61 79 -129 41 -69 76 -123 79 -121 3 2 398 658 876 1459 l870 1456 408 0
c224 0 407 -3 407 -6z"/>
<path d="M6040 9351 c-95 -31 -140 -86 -147 -184 -6 -74 7 -124 45 -169 77
-91 246 -89 314 3 78 105 56 264 -45 324 -46 26 -127 39 -167 26z"/>
<path d="M3906 9262 c-8 -14 -66 -165 -66 -174 0 -5 34 -8 75 -8 41 0 75 1 75
3 0 5 -72 182 -75 185 -2 2 -6 -1 -9 -6z"/>
<path d="M8720 9275 l0 -75 64 0 c82 0 122 14 134 48 12 36 -3 77 -34 91 -14
6 -56 11 -94 11 l-70 0 0 -75z"/>
<path d="M8209 7817 l-67 -172 136 -3 c74 -1 137 -1 139 2 5 5 -128 346 -136
346 -3 0 -36 -78 -72 -173z"/>
<path d="M9280 7990 l0 -142 123 3 c100 3 128 8 157 24 100 59 82 204 -29 235
-20 5 -84 13 -143 16 l-108 7 0 -143z"/>
<path d="M8600 1915 c0 -23 3 -25 50 -25 l50 0 0 -130 0 -130 25 0 25 0 0 130
0 130 50 0 c47 0 50 2 50 25 l0 25 -125 0 -125 0 0 -25z"/>
<path d="M8887 1933 c-4 -3 -7 -73 -7 -155 l0 -148 25 0 25 0 1 128 0 127 41
-127 c37 -114 44 -128 64 -128 20 0 27 14 62 123 l40 122 1 -122 c1 -116 2
-123 21 -123 19 0 20 7 20 155 l0 155 -33 0 -34 0 -37 -120 c-20 -66 -38 -120
-40 -120 -2 0 -20 54 -41 120 -38 120 -39 120 -70 120 -17 0 -35 -3 -38 -7z"/>
</g>
</svg>
